<?xml version="1.0" encoding="UTF-8"?>
<svg xmlns="http://www.w3.org/2000/svg" xmlns:xlink="http://www.w3.org/1999/xlink" width="0" height="0">
<defs>
<symbol fill="currentColor" viewBox="0 0 50 50" id="github">
	<path 		fill="none"
		stroke="currentColor"
		stroke-miterlimit="10"
		stroke-width="2"
		d="M3,25c0,12.148,9.852,22,22,22s22-9.852,22-22S37.148,3,25,3S3,12.852,3,25z"
	></path>
	<path 		fill="none"
		stroke="currentColor"
		stroke-linecap="round"
		stroke-linejoin="round"
		stroke-miterlimit="10"
		d="M38 25.655c4.51-.282 7.58-.017 9 .163M37.401 27.519c5.169 0 8.498.675 9.699.967M3 25.802c1.42-.181 4.49-.445 9-.163M2.999 28.476c1.199-.292 4.528-.968 9.701-.968"
	></path>
	<path 		fill="none"
		stroke="currentColor"
		stroke-miterlimit="10"
		stroke-width="2"
		d="M36.3 18.6c.5-1.6 1.3-5.2-.2-6.6-2.7 0-4.6 1.3-5.5 2.1C29 13.4 27.1 13 25 13s-4 .4-5.7 1.1c-.9-.8-2.8-2.1-5.5-2.1-1.4 1.3-.7 4.9-.2 6.6-1.1 1.5-1.7 3.3-1.7 5 0 5.5 4.2 9.4 13 9.4s13-3.9 13-9.4C38 21.8 37.4 20.1 36.3 18.6zM19 39c0 0-3 0-3.6 0-1.5 0-2.8-.6-3.4-1.8-.7-1.3-1-3.5-2.8-4.7C8.9 32.3 9.1 32 9.7 32c.6.1 1.9.9 2.7 2 .9 1.1 1.8 2 3.4 2s3.8.1 4.5-.7"
	></path>
	<path 		fill="none"
		stroke="currentColor"
		stroke-miterlimit="10"
		stroke-width="2"
		d="M31,45.7v-6.1c0-2.7-1.9-6.5-4.5-6.5h-2.8c-2.6,0-4.7,3.8-4.7,6.5V46"
	></path>
</symbol>
<symbol fill="currentColor" viewBox="0 0 50 50" id="instagram">
	<path 		fill="none"
		stroke="currentColor"
		stroke-miterlimit="10"
		stroke-width="2"
		d="M16,46h18c6.627,0,12-5.373,12-12V16c0-6.627-5.373-12-12-12H16C9.373,4,4,9.373,4,16v18C4,40.627,9.373,46,16,46z"
	></path>
	<path 		fill="none"
		stroke="currentColor"
		stroke-miterlimit="10"
		stroke-width="2"
		d="M25 15A10 10 0 1 0 25 35A10 10 0 1 0 25 15Z"
	></path>
	<path d="M37 11A2 2 0 1 0 37 15A2 2 0 1 0 37 11Z" ></path>
</symbol>
<symbol fill="currentColor" viewBox="0 0 50 50" id="linkedin">
	<path 		fill="none"
		stroke="currentColor"
		stroke-linecap="round"
		stroke-linejoin="round"
		stroke-miterlimit="10"
		stroke-width="2"
		d="M3 16L13 16 13 35.665 13 45 3 45z"
	></path>
	<path 		fill="none"
		stroke="currentColor"
		stroke-linecap="round"
		stroke-linejoin="round"
		stroke-miterlimit="10"
		stroke-width="1.976"
		d="M8,12L8,12c-3,0-5-1.813-5-4.053S5,4,8,4s4.875,1.707,5,3.947C13,10.187,11.125,12,8,12z"
	></path>
	<path 		fill="none"
		stroke="currentColor"
		stroke-linecap="round"
		stroke-linejoin="round"
		stroke-miterlimit="10"
		stroke-width="2"
		d="M37,28.5c0-2.485-2.015-4.5-4.5-4.5S28,26.015,28,28.5c0,0,0,0.125,0,0.25c0,0.125,0,0.25,0,0.25c0,1.291,0,16,0,16H18V16h10v3.639c0,0,3.27-3.639,8.787-3.639C42.422,16,47,20.135,47,28v17H37C37,45,37,29.557,37,28.5"
	></path>
</symbol>
<symbol fill="currentColor" viewBox="0 0 50 50" id="mail">
	<polyline 		fill="none"
		stroke="currentColor"
		stroke-linecap="round"
		stroke-linejoin="round"
		stroke-miterlimit="10"
		stroke-width="2"
		points="48,16 25,33 2,16"
	></polyline>
	<polyline 		fill="none"
		stroke="currentColor"
		stroke-linecap="round"
		stroke-linejoin="round"
		stroke-miterlimit="10"
		stroke-width="2"
		points="38.12,10.3 25,20 11.88,10.3 11.87,10.3"
	></polyline>
	<path 		fill="none"
		stroke="currentColor"
		stroke-linecap="round"
		stroke-linejoin="round"
		stroke-miterlimit="10"
		stroke-width="2"
		d="M12,11	v31H4.5C3.119,42,2,40.881,2,39.5V12.41c0-1.508,0.616-2.872,1.61-3.852C5.092,7.096,7.467,7.042,9.14,8.28l2.73,2.02h0.01"
	></path>
	<path 		fill="none"
		stroke="currentColor"
		stroke-linecap="round"
		stroke-linejoin="round"
		stroke-miterlimit="10"
		stroke-width="2"
		d="M38.12,10.3l2.746-2.027c1.672-1.235,4.043-1.181,5.525,0.278c0.01,0.01,0.02,0.019,0.03,0.029C47.4,9.56,48,10.92,48,12.41V39.5	c0,1.381-1.119,2.5-2.5,2.5H38V11"
	></path>
</symbol>
<symbol fill="currentColor" viewBox="0 0 50 50" id="twitter">
	<path 		fill="none"
		stroke="currentColor"
		stroke-linecap="round"
		stroke-linejoin="round"
		stroke-miterlimit="10"
		stroke-width="2"
		d="M49,11.096c-1.768,0.784-3.664,1.311-5.658,1.552c2.035-1.22,3.597-3.151,4.332-5.448c-1.903,1.127-4.013,1.947-6.255,2.388c-1.795-1.916-4.354-3.11-7.186-3.11c-5.44,0-9.849,4.409-9.849,9.847c0,0.771,0.088,1.522,0.257,2.244c-8.184-0.412-15.441-4.332-20.299-10.29c-0.848,1.458-1.332,3.149-1.332,4.953c0,3.416,1.735,6.429,4.38,8.197c-1.616-0.051-3.132-0.495-4.46-1.233c0,0.042,0,0.082,0,0.125c0,4.773,3.394,8.748,7.896,9.657c-0.824,0.227-1.694,0.346-2.592,0.346c-0.636,0-1.253-0.062-1.856-0.178c1.257,3.909,4.892,6.761,9.201,6.84c-3.368,2.641-7.614,4.213-12.23,4.213c-0.797,0-1.579-0.044-2.348-0.137c4.356,2.795,9.534,4.425,15.095,4.425c18.114,0,28.022-15.007,28.022-28.016c0-0.429-0.011-0.856-0.029-1.275C46.012,14.807,47.681,13.071,49,11.096z"
	></path>
</symbol>
</defs>
</svg>