<svg fill="currentColor" xmlns="http://www.w3.org/2000/svg" viewBox="0 0 50 50">
	<path
		fill="none"
		stroke="currentColor"
		stroke-miterlimit="10"
		stroke-width="2"
		d="M3,25c0,12.148,9.852,22,22,22s22-9.852,22-22S37.148,3,25,3S3,12.852,3,25z"
	/>
	<path
		fill="none"
		stroke="currentColor"
		stroke-linecap="round"
		stroke-linejoin="round"
		stroke-miterlimit="10"
		d="M38 25.655c4.51-.282 7.58-.017 9 .163M37.401 27.519c5.169 0 8.498.675 9.699.967M3 25.802c1.42-.181 4.49-.445 9-.163M2.999 28.476c1.199-.292 4.528-.968 9.701-.968"
	/>
	<path
		fill="none"
		stroke="currentColor"
		stroke-miterlimit="10"
		stroke-width="2"
		d="M36.3 18.6c.5-1.6 1.3-5.2-.2-6.6-2.7 0-4.6 1.3-5.5 2.1C29 13.4 27.1 13 25 13s-4 .4-5.7 1.1c-.9-.8-2.8-2.1-5.5-2.1-1.4 1.3-.7 4.9-.2 6.6-1.1 1.5-1.7 3.3-1.7 5 0 5.5 4.2 9.4 13 9.4s13-3.9 13-9.4C38 21.8 37.4 20.1 36.3 18.6zM19 39c0 0-3 0-3.6 0-1.5 0-2.8-.6-3.4-1.8-.7-1.3-1-3.5-2.8-4.7C8.9 32.3 9.1 32 9.7 32c.6.1 1.9.9 2.7 2 .9 1.1 1.8 2 3.4 2s3.8.1 4.5-.7"
	/>
	<path
		fill="none"
		stroke="currentColor"
		stroke-miterlimit="10"
		stroke-width="2"
		d="M31,45.7v-6.1c0-2.7-1.9-6.5-4.5-6.5h-2.8c-2.6,0-4.7,3.8-4.7,6.5V46"
	/>
</svg>